<mxfile host="app.diagrams.net" modified="2023-04-09T20:46:18.030Z" agent="Mozilla/5.0 (Macintosh; Intel Mac OS X 10_15_7) AppleWebKit/537.36 (KHTML, like Gecko) Chrome/111.0.0.0 Safari/537.36" etag="7PizoOwg6g1YinZPxkVO" version="21.1.4" type="device" pages="2">
  <diagram id="YIPa2errtSvZ_nfrXcX-" name="Page-1">
    <mxGraphModel dx="1764" dy="1091" grid="0" gridSize="10" guides="1" tooltips="1" connect="1" arrows="1" fold="1" page="0" pageScale="1" pageWidth="1100" pageHeight="1700" background="#e9f0fb" math="0" shadow="1">
      <root>
        <mxCell id="0" />
        <mxCell id="1" parent="0" />
        <mxCell id="bDeLxScSUfrCfIPKcbEW-22" value="" style="ellipse;shape=cloud;whiteSpace=wrap;html=1;shadow=1;" vertex="1" parent="1">
          <mxGeometry x="507" y="697" width="1431" height="669" as="geometry" />
        </mxCell>
        <mxCell id="bDeLxScSUfrCfIPKcbEW-19" style="edgeStyle=orthogonalEdgeStyle;rounded=0;orthogonalLoop=1;jettySize=auto;html=1;entryX=0.5;entryY=1;entryDx=0;entryDy=0;" edge="1" parent="1" source="bDeLxScSUfrCfIPKcbEW-17" target="qylB5J43ioJ6EzCwsVwd-20">
          <mxGeometry relative="1" as="geometry" />
        </mxCell>
        <mxCell id="bDeLxScSUfrCfIPKcbEW-17" value="" style="rounded=0;whiteSpace=wrap;html=1;fillColor=#f5f5f5;strokeColor=#666666;glass=1;fontColor=#333333;" vertex="1" parent="1">
          <mxGeometry x="1660" y="1366" width="120" height="190" as="geometry" />
        </mxCell>
        <mxCell id="bDeLxScSUfrCfIPKcbEW-16" style="edgeStyle=orthogonalEdgeStyle;rounded=0;orthogonalLoop=1;jettySize=auto;html=1;entryX=0;entryY=0.5;entryDx=0;entryDy=0;" edge="1" parent="1" source="bDeLxScSUfrCfIPKcbEW-10" target="qylB5J43ioJ6EzCwsVwd-24">
          <mxGeometry relative="1" as="geometry" />
        </mxCell>
        <mxCell id="bDeLxScSUfrCfIPKcbEW-10" value="" style="rounded=0;whiteSpace=wrap;html=1;fillColor=#f5f5f5;strokeColor=#666666;glass=1;fontColor=#333333;" vertex="1" parent="1">
          <mxGeometry x="380" y="335" width="230" height="175.5" as="geometry" />
        </mxCell>
        <mxCell id="qylB5J43ioJ6EzCwsVwd-27" style="edgeStyle=orthogonalEdgeStyle;rounded=0;orthogonalLoop=1;jettySize=auto;html=1;entryX=0.5;entryY=0;entryDx=0;entryDy=0;fillColor=#e51400;strokeColor=#B20000;" parent="1" source="qylB5J43ioJ6EzCwsVwd-24" target="qylB5J43ioJ6EzCwsVwd-2" edge="1">
          <mxGeometry relative="1" as="geometry" />
        </mxCell>
        <mxCell id="qylB5J43ioJ6EzCwsVwd-28" style="edgeStyle=orthogonalEdgeStyle;rounded=0;orthogonalLoop=1;jettySize=auto;html=1;exitX=1;exitY=0.5;exitDx=0;exitDy=0;entryX=0.5;entryY=0;entryDx=0;entryDy=0;fillColor=#e51400;strokeColor=#B20000;" parent="1" source="qylB5J43ioJ6EzCwsVwd-24" target="qylB5J43ioJ6EzCwsVwd-16" edge="1">
          <mxGeometry relative="1" as="geometry">
            <Array as="points">
              <mxPoint x="1145" y="670" />
            </Array>
          </mxGeometry>
        </mxCell>
        <mxCell id="qylB5J43ioJ6EzCwsVwd-29" style="edgeStyle=orthogonalEdgeStyle;rounded=0;orthogonalLoop=1;jettySize=auto;html=1;exitX=1;exitY=0.5;exitDx=0;exitDy=0;entryX=0.5;entryY=0;entryDx=0;entryDy=0;fillColor=#e51400;strokeColor=#B20000;" parent="1" source="qylB5J43ioJ6EzCwsVwd-24" target="qylB5J43ioJ6EzCwsVwd-18" edge="1">
          <mxGeometry relative="1" as="geometry" />
        </mxCell>
        <mxCell id="qylB5J43ioJ6EzCwsVwd-24" value="" style="rounded=0;whiteSpace=wrap;html=1;fillColor=#f8cecc;strokeColor=#b85450;glass=1;" parent="1" vertex="1">
          <mxGeometry x="567.15" y="565" width="388.3" height="210" as="geometry" />
        </mxCell>
        <mxCell id="qylB5J43ioJ6EzCwsVwd-20" value="" style="rounded=0;whiteSpace=wrap;html=1;fillColor=#CDE3E6;strokeColor=#0e8088;glass=1;" parent="1" vertex="1">
          <mxGeometry x="1660" y="895" width="120" height="210" as="geometry" />
        </mxCell>
        <mxCell id="qylB5J43ioJ6EzCwsVwd-18" value="" style="rounded=0;whiteSpace=wrap;html=1;fillColor=#e1d5e7;strokeColor=#9673a6;glass=1;" parent="1" vertex="1">
          <mxGeometry x="1440" y="895" width="120" height="210" as="geometry" />
        </mxCell>
        <mxCell id="qylB5J43ioJ6EzCwsVwd-16" value="" style="rounded=0;whiteSpace=wrap;html=1;fillColor=#fff2cc;strokeColor=#d6b656;glass=1;" parent="1" vertex="1">
          <mxGeometry x="980" y="905" width="330" height="327" as="geometry" />
        </mxCell>
        <mxCell id="qylB5J43ioJ6EzCwsVwd-2" value="" style="rounded=0;whiteSpace=wrap;html=1;fillColor=#ffe6cc;strokeColor=#d79b00;glass=1;" parent="1" vertex="1">
          <mxGeometry x="701.3" y="895" width="120" height="210" as="geometry" />
        </mxCell>
        <mxCell id="qylB5J43ioJ6EzCwsVwd-6" value="" style="rounded=0;whiteSpace=wrap;html=1;glass=1;fillColor=#dae8fc;strokeColor=#6c8ebf;" parent="1" vertex="1">
          <mxGeometry x="450" y="795" width="100" height="317" as="geometry" />
        </mxCell>
        <mxCell id="02lZLyMtl6aPGszSBePG-54" style="edgeStyle=orthogonalEdgeStyle;rounded=0;orthogonalLoop=1;jettySize=auto;html=1;" parent="1" source="AV6chdXFAvIHWM2sQgtt-2" target="02lZLyMtl6aPGszSBePG-11" edge="1">
          <mxGeometry relative="1" as="geometry" />
        </mxCell>
        <mxCell id="02lZLyMtl6aPGszSBePG-55" value="Crawl raw data&amp;nbsp;" style="edgeLabel;html=1;align=center;verticalAlign=middle;resizable=0;points=[];" parent="02lZLyMtl6aPGszSBePG-54" vertex="1" connectable="0">
          <mxGeometry x="0.127" y="4" relative="1" as="geometry">
            <mxPoint x="-4" y="-5" as="offset" />
          </mxGeometry>
        </mxCell>
        <mxCell id="bDeLxScSUfrCfIPKcbEW-8" style="edgeStyle=orthogonalEdgeStyle;rounded=0;orthogonalLoop=1;jettySize=auto;html=1;entryX=0.75;entryY=0;entryDx=0;entryDy=0;entryPerimeter=0;" edge="1" parent="1" source="AV6chdXFAvIHWM2sQgtt-2" target="02lZLyMtl6aPGszSBePG-63">
          <mxGeometry relative="1" as="geometry">
            <Array as="points">
              <mxPoint x="1060" y="605" />
              <mxPoint x="898" y="605" />
            </Array>
          </mxGeometry>
        </mxCell>
        <mxCell id="AV6chdXFAvIHWM2sQgtt-2" value="&amp;nbsp;RAW Amazon S3" style="sketch=0;outlineConnect=0;fontColor=#232F3E;gradientColor=none;strokeColor=#ffffff;fillColor=#232F3E;dashed=0;verticalLabelPosition=middle;verticalAlign=bottom;align=center;html=1;whiteSpace=wrap;fontSize=10;fontStyle=1;spacing=3;shape=mxgraph.aws4.productIcon;prIcon=mxgraph.aws4.s3;fontFamily=Helvetica;" parent="1" vertex="1">
          <mxGeometry x="1004.3" y="955" width="80" height="110" as="geometry" />
        </mxCell>
        <mxCell id="02lZLyMtl6aPGszSBePG-2" value="External Source" style="text;html=1;align=center;verticalAlign=middle;resizable=0;points=[];autosize=1;strokeColor=none;fillColor=none;" parent="1" vertex="1">
          <mxGeometry x="445" y="1050" width="110" height="30" as="geometry" />
        </mxCell>
        <mxCell id="02lZLyMtl6aPGszSBePG-20" value="" style="edgeStyle=orthogonalEdgeStyle;rounded=0;orthogonalLoop=1;jettySize=auto;html=1;" parent="1" source="02lZLyMtl6aPGszSBePG-11" target="02lZLyMtl6aPGszSBePG-15" edge="1">
          <mxGeometry relative="1" as="geometry">
            <mxPoint x="1593.3" y="1124" as="targetPoint" />
          </mxGeometry>
        </mxCell>
        <mxCell id="02lZLyMtl6aPGszSBePG-56" value="Transform raw data" style="edgeLabel;html=1;align=center;verticalAlign=middle;resizable=0;points=[];" parent="02lZLyMtl6aPGszSBePG-20" vertex="1" connectable="0">
          <mxGeometry x="-0.2705" y="-1" relative="1" as="geometry">
            <mxPoint x="13" y="-19" as="offset" />
          </mxGeometry>
        </mxCell>
        <mxCell id="02lZLyMtl6aPGszSBePG-11" value="Amazon Glue Crawler" style="sketch=0;outlineConnect=0;fontColor=#232F3E;gradientColor=none;fillColor=#4D27AA;strokeColor=none;dashed=0;verticalLabelPosition=bottom;verticalAlign=top;align=center;html=1;fontSize=12;fontStyle=0;aspect=fixed;pointerEvents=1;shape=mxgraph.aws4.glue_crawlers;" parent="1" vertex="1">
          <mxGeometry x="1006.3" y="1116.5" width="78" height="78" as="geometry" />
        </mxCell>
        <mxCell id="02lZLyMtl6aPGszSBePG-57" value="Load transformed data&amp;nbsp;" style="edgeStyle=orthogonalEdgeStyle;rounded=0;orthogonalLoop=1;jettySize=auto;html=1;" parent="1" source="02lZLyMtl6aPGszSBePG-15" target="M2bKCPdlgEuILwGiyvzk-14" edge="1">
          <mxGeometry relative="1" as="geometry">
            <mxPoint x="1406.3" y="1065" as="targetPoint" />
          </mxGeometry>
        </mxCell>
        <mxCell id="02lZLyMtl6aPGszSBePG-15" value="AWS Glue" style="sketch=0;outlineConnect=0;fontColor=#232F3E;gradientColor=none;strokeColor=#ffffff;fillColor=#232F3E;dashed=0;verticalLabelPosition=middle;verticalAlign=bottom;align=center;html=1;whiteSpace=wrap;fontSize=10;fontStyle=1;spacing=3;shape=mxgraph.aws4.productIcon;prIcon=mxgraph.aws4.glue;" parent="1" vertex="1">
          <mxGeometry x="1200" y="1105.5" width="80" height="100" as="geometry" />
        </mxCell>
        <mxCell id="02lZLyMtl6aPGszSBePG-60" style="edgeStyle=orthogonalEdgeStyle;rounded=0;orthogonalLoop=1;jettySize=auto;html=1;exitX=1;exitY=0.5;exitDx=0;exitDy=0;entryX=0;entryY=0.5;entryDx=0;entryDy=0;" parent="1" source="qylB5J43ioJ6EzCwsVwd-18" target="qylB5J43ioJ6EzCwsVwd-20" edge="1">
          <mxGeometry relative="1" as="geometry">
            <mxPoint x="2105.8" y="1003" as="sourcePoint" />
            <mxPoint x="2265.3" y="1010" as="targetPoint" />
          </mxGeometry>
        </mxCell>
        <mxCell id="02lZLyMtl6aPGszSBePG-61" value="Visualize data" style="edgeLabel;html=1;align=center;verticalAlign=middle;resizable=0;points=[];" parent="02lZLyMtl6aPGszSBePG-60" vertex="1" connectable="0">
          <mxGeometry x="-0.1583" y="3" relative="1" as="geometry">
            <mxPoint x="8" y="3" as="offset" />
          </mxGeometry>
        </mxCell>
        <mxCell id="bDeLxScSUfrCfIPKcbEW-3" style="edgeStyle=orthogonalEdgeStyle;rounded=0;orthogonalLoop=1;jettySize=auto;html=1;" edge="1" parent="1" source="02lZLyMtl6aPGszSBePG-17" target="M2bKCPdlgEuILwGiyvzk-14">
          <mxGeometry relative="1" as="geometry" />
        </mxCell>
        <mxCell id="02lZLyMtl6aPGszSBePG-17" value="Amazon Athena" style="sketch=0;outlineConnect=0;fontColor=#232F3E;gradientColor=none;strokeColor=#ffffff;fillColor=#232F3E;dashed=0;verticalLabelPosition=middle;verticalAlign=bottom;align=center;html=1;whiteSpace=wrap;fontSize=10;fontStyle=1;spacing=3;shape=mxgraph.aws4.productIcon;prIcon=mxgraph.aws4.athena;" parent="1" vertex="1">
          <mxGeometry x="1460" y="955" width="80" height="110" as="geometry" />
        </mxCell>
        <mxCell id="02lZLyMtl6aPGszSBePG-21" value="Amazon QuickSight" style="sketch=0;outlineConnect=0;fontColor=#232F3E;gradientColor=none;strokeColor=#ffffff;fillColor=#232F3E;dashed=0;verticalLabelPosition=middle;verticalAlign=bottom;align=center;html=1;whiteSpace=wrap;fontSize=10;fontStyle=1;spacing=3;shape=mxgraph.aws4.productIcon;prIcon=mxgraph.aws4.quicksight;" parent="1" vertex="1">
          <mxGeometry x="1680" y="955" width="80" height="110" as="geometry" />
        </mxCell>
        <mxCell id="02lZLyMtl6aPGszSBePG-58" style="edgeStyle=orthogonalEdgeStyle;rounded=0;orthogonalLoop=1;jettySize=auto;html=1;" parent="1" source="M2bKCPdlgEuILwGiyvzk-14" target="02lZLyMtl6aPGszSBePG-17" edge="1">
          <mxGeometry relative="1" as="geometry">
            <mxPoint x="1445.3" y="1010" as="sourcePoint" />
          </mxGeometry>
        </mxCell>
        <mxCell id="02lZLyMtl6aPGszSBePG-59" value="Analyze transformed data" style="edgeLabel;html=1;align=center;verticalAlign=middle;resizable=0;points=[];" parent="02lZLyMtl6aPGszSBePG-58" vertex="1" connectable="0">
          <mxGeometry x="-0.23" y="5" relative="1" as="geometry">
            <mxPoint x="21" as="offset" />
          </mxGeometry>
        </mxCell>
        <mxCell id="02lZLyMtl6aPGszSBePG-27" value="AWS&#xa;CloudTrail" style="sketch=0;outlineConnect=0;fontColor=#232F3E;gradientColor=none;strokeColor=#ffffff;fillColor=#232F3E;dashed=0;verticalLabelPosition=middle;verticalAlign=bottom;align=center;html=1;whiteSpace=wrap;fontSize=10;fontStyle=1;spacing=3;shape=mxgraph.aws4.productIcon;prIcon=mxgraph.aws4.cloudtrail;" parent="1" vertex="1">
          <mxGeometry x="600" y="629.5" width="80" height="110" as="geometry" />
        </mxCell>
        <mxCell id="02lZLyMtl6aPGszSBePG-28" value="" style="outlineConnect=0;dashed=0;verticalLabelPosition=bottom;verticalAlign=top;align=center;html=1;shape=mxgraph.aws3.iam;fillColor=#759C3E;gradientColor=none;" parent="1" vertex="1">
          <mxGeometry x="415" y="386" width="40" height="81" as="geometry" />
        </mxCell>
        <mxCell id="02lZLyMtl6aPGszSBePG-47" style="edgeStyle=orthogonalEdgeStyle;rounded=0;orthogonalLoop=1;jettySize=auto;html=1;" parent="1" source="02lZLyMtl6aPGszSBePG-51" target="02lZLyMtl6aPGszSBePG-46" edge="1">
          <mxGeometry relative="1" as="geometry">
            <mxPoint x="706.3" y="1010" as="sourcePoint" />
          </mxGeometry>
        </mxCell>
        <mxCell id="02lZLyMtl6aPGszSBePG-48" value="Process data in data stream" style="edgeLabel;html=1;align=center;verticalAlign=middle;resizable=0;points=[];labelBackgroundColor=default;" parent="02lZLyMtl6aPGszSBePG-47" vertex="1" connectable="0">
          <mxGeometry x="-0.2824" y="4" relative="1" as="geometry">
            <mxPoint x="18" y="-1" as="offset" />
          </mxGeometry>
        </mxCell>
        <mxCell id="qylB5J43ioJ6EzCwsVwd-13" style="edgeStyle=orthogonalEdgeStyle;rounded=0;orthogonalLoop=1;jettySize=auto;html=1;" parent="1" source="02lZLyMtl6aPGszSBePG-46" target="AV6chdXFAvIHWM2sQgtt-2" edge="1">
          <mxGeometry relative="1" as="geometry" />
        </mxCell>
        <mxCell id="02lZLyMtl6aPGszSBePG-46" value="AWS Lambda" style="sketch=0;outlineConnect=0;fontColor=#232F3E;gradientColor=none;strokeColor=#ffffff;fillColor=#232F3E;dashed=0;verticalLabelPosition=middle;verticalAlign=bottom;align=center;html=1;whiteSpace=wrap;fontSize=10;fontStyle=1;spacing=3;shape=mxgraph.aws4.productIcon;prIcon=mxgraph.aws4.lambda;" parent="1" vertex="1">
          <mxGeometry x="721.3" y="955" width="80" height="110" as="geometry" />
        </mxCell>
        <mxCell id="02lZLyMtl6aPGszSBePG-51" value="" style="shadow=0;dashed=0;html=1;strokeColor=none;fillColor=#4495D1;labelPosition=center;verticalLabelPosition=bottom;verticalAlign=top;align=center;outlineConnect=0;shape=mxgraph.veeam.globe;" parent="1" vertex="1">
          <mxGeometry x="461.3" y="970" width="77.4" height="80" as="geometry" />
        </mxCell>
        <mxCell id="02lZLyMtl6aPGszSBePG-62" value="Amazon CloudWatch" style="sketch=0;outlineConnect=0;fontColor=#232F3E;gradientColor=none;strokeColor=#ffffff;fillColor=#232F3E;dashed=0;verticalLabelPosition=middle;verticalAlign=bottom;align=center;html=1;whiteSpace=wrap;fontSize=10;fontStyle=1;spacing=3;shape=mxgraph.aws4.productIcon;prIcon=mxgraph.aws4.cloudwatch;" parent="1" vertex="1">
          <mxGeometry x="721.3" y="629.5" width="80" height="110" as="geometry" />
        </mxCell>
        <mxCell id="02lZLyMtl6aPGszSBePG-63" value="" style="sketch=0;points=[[0,0,0],[0.25,0,0],[0.5,0,0],[0.75,0,0],[1,0,0],[0,1,0],[0.25,1,0],[0.5,1,0],[0.75,1,0],[1,1,0],[0,0.25,0],[0,0.5,0],[0,0.75,0],[1,0.25,0],[1,0.5,0],[1,0.75,0]];outlineConnect=0;fontColor=#232F3E;gradientColor=#FF4F8B;gradientDirection=north;fillColor=#BC1356;strokeColor=#ffffff;dashed=0;verticalLabelPosition=bottom;verticalAlign=top;align=center;html=1;fontSize=12;fontStyle=0;aspect=fixed;shape=mxgraph.aws4.resourceIcon;resIcon=mxgraph.aws4.sns;" parent="1" vertex="1">
          <mxGeometry x="840" y="631" width="78" height="78" as="geometry" />
        </mxCell>
        <mxCell id="qylB5J43ioJ6EzCwsVwd-7" value="&lt;b&gt;Data Source&lt;/b&gt;" style="text;html=1;strokeColor=none;fillColor=none;align=center;verticalAlign=middle;whiteSpace=wrap;rounded=0;" parent="1" vertex="1">
          <mxGeometry x="470" y="815" width="60" height="30" as="geometry" />
        </mxCell>
        <mxCell id="qylB5J43ioJ6EzCwsVwd-10" value="&lt;b&gt;Data Aggregator&lt;/b&gt;" style="text;html=1;strokeColor=none;fillColor=none;align=center;verticalAlign=middle;whiteSpace=wrap;rounded=0;" parent="1" vertex="1">
          <mxGeometry x="731.3" y="908" width="60" height="30" as="geometry" />
        </mxCell>
        <mxCell id="qylB5J43ioJ6EzCwsVwd-15" value="Load raw data in landing zone" style="edgeLabel;html=1;align=center;verticalAlign=middle;resizable=0;points=[];labelBackgroundColor=default;" parent="1" vertex="1" connectable="0">
          <mxGeometry x="899.9976470588236" y="1010" as="geometry">
            <mxPoint x="-3" y="-2" as="offset" />
          </mxGeometry>
        </mxCell>
        <mxCell id="qylB5J43ioJ6EzCwsVwd-17" value="&lt;b&gt;Data&amp;nbsp;Governance&lt;/b&gt;" style="text;html=1;strokeColor=none;fillColor=none;align=center;verticalAlign=middle;whiteSpace=wrap;rounded=0;" parent="1" vertex="1">
          <mxGeometry x="1115" y="915" width="60" height="30" as="geometry" />
        </mxCell>
        <mxCell id="qylB5J43ioJ6EzCwsVwd-19" value="&lt;b&gt;Data Analysis&lt;/b&gt;" style="text;html=1;strokeColor=none;fillColor=none;align=center;verticalAlign=middle;whiteSpace=wrap;rounded=0;" parent="1" vertex="1">
          <mxGeometry x="1470" y="908" width="60" height="30" as="geometry" />
        </mxCell>
        <mxCell id="qylB5J43ioJ6EzCwsVwd-21" value="&lt;b&gt;Data Visualization&lt;/b&gt;" style="text;html=1;strokeColor=none;fillColor=none;align=center;verticalAlign=middle;whiteSpace=wrap;rounded=0;" parent="1" vertex="1">
          <mxGeometry x="1690" y="908" width="60" height="30" as="geometry" />
        </mxCell>
        <mxCell id="qylB5J43ioJ6EzCwsVwd-25" value="&lt;b&gt;Cloud Maintenance&lt;/b&gt;" style="text;html=1;strokeColor=none;fillColor=none;align=center;verticalAlign=middle;whiteSpace=wrap;rounded=0;" parent="1" vertex="1">
          <mxGeometry x="731.3" y="585" width="60" height="30" as="geometry" />
        </mxCell>
        <mxCell id="qylB5J43ioJ6EzCwsVwd-31" value="IAM" style="text;html=1;strokeColor=none;fillColor=none;align=center;verticalAlign=middle;whiteSpace=wrap;rounded=0;" parent="1" vertex="1">
          <mxGeometry x="405" y="465" width="60" height="30" as="geometry" />
        </mxCell>
        <mxCell id="qylB5J43ioJ6EzCwsVwd-32" value="Amazon SNS" style="text;html=1;strokeColor=none;fillColor=none;align=center;verticalAlign=middle;whiteSpace=wrap;rounded=0;" parent="1" vertex="1">
          <mxGeometry x="849" y="715" width="60" height="30" as="geometry" />
        </mxCell>
        <mxCell id="qylB5J43ioJ6EzCwsVwd-33" value="&lt;h1&gt;&lt;font color=&quot;#333333&quot; style=&quot;font-size: 40px;&quot;&gt;Data Lake Final Design&lt;/font&gt;&lt;/h1&gt;" style="text;html=1;strokeColor=none;fillColor=none;spacing=5;spacingTop=-20;whiteSpace=wrap;overflow=hidden;rounded=0;align=center;" parent="1" vertex="1">
          <mxGeometry x="1284" y="467" width="484" height="70" as="geometry" />
        </mxCell>
        <mxCell id="M2bKCPdlgEuILwGiyvzk-1" value="Consumer" style="sketch=0;outlineConnect=0;fontColor=#232F3E;gradientColor=none;strokeColor=#232F3E;fillColor=#ffffff;dashed=0;verticalLabelPosition=bottom;verticalAlign=top;align=center;html=1;fontSize=12;fontStyle=0;aspect=fixed;shape=mxgraph.aws4.resourceIcon;resIcon=mxgraph.aws4.user;" parent="1" vertex="1">
          <mxGeometry x="1672" y="1424" width="96" height="96" as="geometry" />
        </mxCell>
        <mxCell id="M2bKCPdlgEuILwGiyvzk-3" value="Employees" style="sketch=0;pointerEvents=1;shadow=0;dashed=0;html=1;strokeColor=none;labelPosition=center;verticalLabelPosition=bottom;verticalAlign=top;align=center;fillColor=#505050;shape=mxgraph.mscae.intune.user_group" parent="1" vertex="1">
          <mxGeometry x="480" y="386" width="100" height="80" as="geometry" />
        </mxCell>
        <mxCell id="bDeLxScSUfrCfIPKcbEW-9" style="edgeStyle=orthogonalEdgeStyle;rounded=0;orthogonalLoop=1;jettySize=auto;html=1;fillColor=#647687;strokeColor=#314354;" edge="1" parent="1" source="M2bKCPdlgEuILwGiyvzk-8">
          <mxGeometry relative="1" as="geometry">
            <mxPoint x="1030" y="955" as="targetPoint" />
          </mxGeometry>
        </mxCell>
        <mxCell id="M2bKCPdlgEuILwGiyvzk-8" value=".CSV file" style="sketch=0;pointerEvents=1;shadow=0;dashed=0;html=1;strokeColor=none;fillColor=#505050;labelPosition=center;verticalLabelPosition=bottom;verticalAlign=top;outlineConnect=0;align=center;shape=mxgraph.office.users.csv_file;" parent="1" vertex="1">
          <mxGeometry x="464.5" y="874" width="71" height="51" as="geometry" />
        </mxCell>
        <mxCell id="bDeLxScSUfrCfIPKcbEW-7" style="edgeStyle=orthogonalEdgeStyle;rounded=0;orthogonalLoop=1;jettySize=auto;html=1;entryX=0.25;entryY=0;entryDx=0;entryDy=0;entryPerimeter=0;" edge="1" parent="1" source="M2bKCPdlgEuILwGiyvzk-14" target="02lZLyMtl6aPGszSBePG-63">
          <mxGeometry relative="1" as="geometry">
            <Array as="points">
              <mxPoint x="1240" y="585" />
              <mxPoint x="860" y="585" />
            </Array>
          </mxGeometry>
        </mxCell>
        <mxCell id="M2bKCPdlgEuILwGiyvzk-14" value="&amp;nbsp;SILVER Amazon S3" style="sketch=0;outlineConnect=0;strokeColor=#314354;fillColor=#647687;dashed=0;verticalLabelPosition=middle;verticalAlign=bottom;align=center;html=1;whiteSpace=wrap;fontSize=10;fontStyle=1;spacing=3;shape=mxgraph.aws4.productIcon;prIcon=mxgraph.aws4.s3;fontColor=#ffffff;" parent="1" vertex="1">
          <mxGeometry x="1200" y="955" width="80" height="110" as="geometry" />
        </mxCell>
        <mxCell id="bDeLxScSUfrCfIPKcbEW-12" value="&lt;b&gt;Internal&lt;/b&gt;" style="text;html=1;strokeColor=none;fillColor=none;align=center;verticalAlign=middle;whiteSpace=wrap;rounded=0;" vertex="1" parent="1">
          <mxGeometry x="465" y="348" width="60" height="30" as="geometry" />
        </mxCell>
        <mxCell id="bDeLxScSUfrCfIPKcbEW-18" value="&lt;b&gt;External&lt;/b&gt;" style="text;html=1;strokeColor=none;fillColor=none;align=center;verticalAlign=middle;whiteSpace=wrap;rounded=0;" vertex="1" parent="1">
          <mxGeometry x="1690" y="1383" width="60" height="30" as="geometry" />
        </mxCell>
        <mxCell id="bDeLxScSUfrCfIPKcbEW-27" value="&lt;h1&gt;&lt;font style=&quot;font-size: 40px;&quot;&gt;Data Lake Final Design&lt;/font&gt;&lt;/h1&gt;" style="text;html=1;strokeColor=none;fillColor=none;spacing=5;spacingTop=-20;whiteSpace=wrap;overflow=hidden;rounded=0;align=center;fontColor=#FCFCFC;" vertex="1" parent="1">
          <mxGeometry x="1280" y="460" width="484" height="70" as="geometry" />
        </mxCell>
      </root>
    </mxGraphModel>
  </diagram>
  <diagram id="6f7JOciFy3MY2vURaIDj" name="Page-2">
    <mxGraphModel dx="794" dy="491" grid="1" gridSize="10" guides="1" tooltips="1" connect="1" arrows="1" fold="1" page="1" pageScale="1" pageWidth="3300" pageHeight="4681" math="0" shadow="0">
      <root>
        <mxCell id="0" />
        <mxCell id="1" parent="0" />
      </root>
    </mxGraphModel>
  </diagram>
</mxfile>
